# xmcd CD database file
#
# Track frame offsets:
#	150
#	13705
#	37635
#	53065
#	79905
#	93877
#	120867
#	136747
#	145044
#	162342
#	164703
#	172085
#	180632
#
# Disc length: 2597 seconds
#
# Revision: 1
# Processed by: cddbd v1.5.2PL0 Copyright (c) Steve Scherf et al.
# Submitted via: CDex 1.70beta2
#
DISCID=9b0a230d
DTITLE=Bo Stief - One Song 3 First Time
DYEAR=2001
DGENRE=Jazz
TTITLE0=First Time
TTITLE1=White Clown
TTITLE2=Leloland
TTITLE3=La Danza Della Zanzarra - Mosquito Dance
TTITLE4=Soundtrack To Denmark
TTITLE5=Now
TTITLE6=It's Raining
TTITLE7=In The Morning Part 1
TTITLE8=In The Morning Part 2
TTITLE9=Don't Hit 1
TTITLE10=Katherine
TTITLE11=Don't Hit 2
TTITLE12=Hope
EXTD=YEAR: 2001
EXTT0=
EXTT1=
EXTT2=
EXTT3=
EXTT4=
EXTT5=
EXTT6=
EXTT7=
EXTT8=
EXTT9=
EXTT10=
EXTT11=
EXTT12=
PLAYORDER=
